<?xml version="1.0" encoding="utf-8"?>
<!-- Generator: Adobe Illustrator 24.0.0, SVG Export Plug-In . SVG Version: 6.00 Build 0)  -->
<svg version="1.1" id="Layer_1" xmlns="http://www.w3.org/2000/svg" xmlns:xlink="http://www.w3.org/1999/xlink" x="0px" y="0px"
	 viewBox="0 0 113 28" style="enable-background:new 0 0 113 28;" xml:space="preserve">
<style type="text/css">
	.st0{fill:#F2E185;}
	.st1{fill:url(#SVGID_1_);}
	.st2{fill:#C39946;}
	.st3{fill:#F1D969;}
	.st4{fill:#F1D968;}
	.st5{fill:#D8B656;}
	.st6{fill:#D9BB64;}
	.st7{fill:#CCA54D;}
	.st8{fill:#D9BC64;}
	.st9{fill:#E4CA6A;}
	.st10{fill:#F2E186;}
	.st11{fill:#CDA64D;}
	.st12{fill:url(#SVGID_2_);}
	.st13{fill:url(#SVGID_3_);}
	.st14{fill:url(#SVGID_4_);}
	.st15{fill:url(#SVGID_5_);}
	.st16{fill:url(#SVGID_6_);}
	.st17{fill:url(#SVGID_7_);}
	.st18{fill:url(#SVGID_8_);}
</style>
<g>
	<path class="st0" d="M16.2,15.5c0,0,0-0.1,0-0.1c0.1-0.3,0.2-0.5,0.3-0.8c0.1-0.2,0.1-0.4,0.1-0.6c0-0.2,0-0.5-0.1-0.7
		c-0.1-0.3-0.1-0.6-0.3-0.8c-0.1-0.2-0.2-0.3-0.3-0.5c-0.1-0.2-0.2-0.3-0.4-0.5c-0.2-0.2-0.4-0.3-0.6-0.5c-0.2-0.1-0.5-0.3-0.7-0.3
		c-0.2-0.1-0.4-0.1-0.6-0.1c-0.1,0-0.3,0-0.4,0c-0.1,0-0.2,0-0.2,0c-0.1,0-0.1,0-0.2,0c0-0.1,0.1,0,0.1-0.1c0,0,0.1,0,0.1,0
		c-0.1,0-0.3,0-0.4,0c-0.1,0-0.2,0-0.4,0.1c-0.3,0-0.5,0.1-0.8,0.2c-0.4,0.1-0.7,0.3-1,0.6c-0.3,0.2-0.5,0.5-0.7,0.8
		c-0.2,0.3-0.3,0.6-0.4,1c-0.1,0.4-0.1,0.8-0.1,1.2c0,0.7,0,1.3,0,2c0,1,0,1.9,0,2.9c0,1,0,2.1,0,3.1c0,0.7,0,1.5,0,2.2
		c0,0.6,0,1.2,0,1.8c0,0.1,0,0.1-0.1,0.1c0.1,0,0.1,0,0.1,0.1c0,0,0,0,0,0c-0.1,0-0.3-0.1-0.4-0.1c-0.2-0.1-0.3-0.1-0.5-0.2
		C8.3,26,8,25.9,7.8,25.8c-0.2-0.1-0.4-0.2-0.6-0.3c-0.2-0.1-0.4-0.2-0.6-0.3c0,0,0,0,0-0.1c0,0,0-0.1,0-0.1c0-1,0-2.1,0-3.1
		c0-1.5,0-2.9,0-4.4c0-1,0-2,0-3c0-0.1,0-0.2,0-0.2c0-0.3,0-0.5,0-0.8c0-0.3,0-0.6,0.1-0.9c0-0.3,0.1-0.6,0.2-0.8
		c0.1-0.3,0.2-0.5,0.3-0.8c0.1-0.2,0.2-0.4,0.3-0.5c0,0,0,0,0,0c0,0,0,0.1,0,0.1c-0.2,0.3-0.3,0.7-0.5,1.1c-0.1,0.4-0.2,0.9-0.2,1.3
		c0,0.3,0,0.5,0,0.8c0,1.2,0,2.4,0,3.6c0.1,0.6,0,1.1,0,1.7c0,0.1,0,0.1,0,0.2c0,0,0-0.1,0-0.1c0-0.5,0-1,0-1.6c0-0.1,0-0.2,0-0.2
		c0.1-0.1,0.1-0.2,0.1-0.2c0,0,0,0,0-0.1c0-0.1,0-0.1,0.1-0.2c0.1-0.1,0.1-0.2,0.2-0.3c0-0.1,0.1-0.1,0.1-0.2c0,0,0,0,0,0
		c0-0.2,0.1-0.3,0.2-0.4c0,0,0-0.1,0.1-0.1c0,0,0-0.1,0.1-0.1c0,0,0,0,0,0c0-0.1,0.1-0.2,0.2-0.3C7.9,15.1,7.9,15,8,14.9
		c0-0.1,0.1-0.1,0.1-0.2c0.1-0.2,0.2-0.3,0.2-0.5c0-0.1,0.1-0.1,0.1-0.2c0.1-0.1,0.1-0.2,0.2-0.3c0.1-0.1,0.2-0.3,0.2-0.5
		C9,13.2,9,13.2,9,13.1c0-0.1,0.1-0.1,0.1-0.2c0.1-0.1,0.1-0.1,0.1-0.2c0-0.1,0.1-0.2,0.2-0.3c0,0,0,0,0,0c0-0.1,0.1-0.2,0.2-0.3
		c0-0.1,0.1-0.1,0.1-0.2c0-0.1,0.1-0.2,0.2-0.3c0-0.1,0.1-0.2,0.2-0.3c0,0,0,0,0,0c0.1-0.1,0.1-0.2,0.2-0.4c0.1-0.1,0.1-0.1,0.1-0.2
		c0,0,0,0,0,0c0.1-0.1,0.1-0.2,0.2-0.2c0,0,0,0,0,0c0-0.1,0.2-0.2,0.2-0.4c0-0.1,0.1-0.2,0.1-0.2C11,9.8,11,9.7,11,9.6
		c0-0.1,0.1-0.2,0.2-0.3c0.1-0.2,0.2-0.3,0.3-0.5c0-0.1,0.1-0.2,0.2-0.2c0.1-0.1,0.1-0.2,0.1-0.2c0.1-0.1,0.1-0.2,0.2-0.3
		C11.9,8.1,12,8,12,8c0-0.1,0.1-0.2,0.1-0.3c0,0,0-0.1,0.1-0.1c0.1-0.1,0.1-0.2,0.2-0.3c0,0,0,0,0,0c0-0.1,0.1-0.2,0.2-0.2
		c0,0,0,0,0,0c-0.2,0-0.4,0.1-0.7,0.1c-0.3,0.1-0.7,0.2-1,0.3c-0.1,0-0.1,0-0.2,0.1c0,0-0.1,0-0.1,0c0.1-0.1,0.2-0.1,0.3-0.1
		c0.2-0.1,0.4-0.1,0.6-0.2c0.3-0.1,0.5-0.1,0.8-0.2C12.8,7,13.3,7,13.7,7c0.3,0,0.6,0.1,0.9,0.1c0.3,0.1,0.5,0.1,0.8,0.2
		c0.1,0,0.1,0.1,0.2,0.1c0.1,0,0.2,0.1,0.3,0.1c0.1,0,0.2,0.1,0.3,0.1c0,0-0.1,0-0.1,0c-0.3-0.1-0.7-0.3-1-0.4
		c-0.3-0.1-0.5-0.1-0.8-0.2c-0.3,0-0.5-0.1-0.8-0.1c-0.2,0-0.4,0-0.5,0c0.1,0,0.2,0,0.4,0c0.1,0,0.2,0,0.2,0c0.3,0,0.6,0.1,0.9,0.2
		c0.3,0.1,0.5,0.1,0.8,0.2c0.4,0.2,0.8,0.4,1.1,0.6c0.3,0.2,0.7,0.5,1,0.8c0.2,0.2,0.4,0.4,0.5,0.6c0.3,0.4,0.5,0.7,0.7,1.1
		c0,0.1,0.1,0.1,0.1,0.2c0,0,0,0,0,0.1c-0.1,0.1-0.1,0.3-0.2,0.4c0,0,0,0,0,0c-0.1,0.1-0.2,0.3-0.2,0.4c0,0.1-0.1,0.1-0.1,0.2
		c0,0.1-0.1,0.1-0.1,0.2c-0.1,0.2-0.2,0.3-0.3,0.5c0,0-0.1,0.1-0.1,0.1c0,0.1-0.1,0.1-0.1,0.2c0,0.1-0.1,0.2-0.2,0.3
		c0,0,0,0.1,0,0.1c0,0.1,0,0.1-0.1,0.1c0,0,0,0,0,0.1c-0.1,0.1-0.1,0.3-0.2,0.4c0,0,0,0,0,0c0,0.1-0.1,0.2-0.1,0.3
		c0,0-0.1,0.1-0.1,0.1c0,0-0.1,0-0.1,0c0,0.1,0,0.1,0,0.2c0,0,0,0.1,0,0.1C16.5,14.9,16.4,15.1,16.2,15.5
		C16.3,15.4,16.3,15.5,16.2,15.5z"/>
	<linearGradient id="SVGID_1_" gradientUnits="userSpaceOnUse" x1="1.8955" y1="3.7573" x2="9.1215" y2="9.0098">
		<stop  offset="0.1664" style="stop-color:#C39945"/>
		<stop  offset="0.8502" style="stop-color:#E3C55B"/>
	</linearGradient>
	<path class="st1" d="M10.4,4.2C10.2,4.3,10,4.4,9.9,4.4C9.7,4.5,9.5,4.6,9.3,4.6C9.1,4.7,8.9,4.8,8.7,5C8.5,5.1,8.3,5.2,8.1,5.3
		C7.8,5.5,7.5,5.7,7.2,5.9C7,6,6.8,6.2,6.7,6.4C6.4,6.6,6.2,6.8,6,7C5.8,7.2,5.7,7.4,5.5,7.6C5.3,7.8,5.2,8.1,5,8.3
		C4.8,8.6,4.7,8.8,4.5,9.1C4.4,9.3,4.3,9.6,4.2,9.8c-0.1,0.3-0.3,0.7-0.4,1c-0.1,0.3-0.2,0.6-0.2,0.9c0,0.2-0.1,0.4-0.1,0.6
		c0,0.3-0.1,0.6-0.1,0.9c0,0,0,0.1,0,0.1c0,0,0,0.1-0.1,0.1c-1,0-2.1,0-3.1,0c-0.1,0-0.1,0-0.1-0.1c0-0.2,0-0.4,0-0.6
		c0-0.2,0-0.3,0.1-0.5c0-0.3,0.1-0.6,0.1-0.9c0-0.2,0.1-0.4,0.1-0.6c0.1-0.3,0.1-0.5,0.2-0.7c0-0.1,0.1-0.2,0.1-0.4
		C0.9,9.3,1,9,1.1,8.8c0.1-0.2,0.2-0.5,0.3-0.7c0.2-0.3,0.3-0.7,0.5-1c0.2-0.4,0.4-0.7,0.7-1C2.8,5.8,3,5.5,3.2,5.2
		C3.4,5,3.6,4.8,3.7,4.6C4,4.4,4.3,4.1,4.6,3.8c0.3-0.2,0.5-0.4,0.8-0.6c0.3-0.2,0.7-0.5,1-0.7C6.7,2.3,7,2.2,7.3,2
		C7.5,1.9,7.8,1.8,8,1.6c0.2-0.1,0.5-0.2,0.7-0.3c0,0,0,0,0.1,0c0.2,0,0.3-0.1,0.4-0.2C9.5,1.1,9.8,1,10.1,1c0.2,0,0.4-0.1,0.6-0.1
		c0.2,0,0.3-0.1,0.5-0.1c0.1,0,0.2,0,0.3-0.1c0.2,0,0.4-0.1,0.6-0.1c0.2,0,0.3,0,0.5,0c0.1,0,0.1,0,0.1,0.1c0,0,0,0,0,0
		c-0.1,0.1-0.1,0.2-0.2,0.3c0,0,0,0,0,0c0,0.1-0.1,0.2-0.2,0.3c0,0,0,0,0,0c0,0.1-0.1,0.2-0.1,0.3c0,0,0,0,0,0
		c0,0.1-0.1,0.2-0.1,0.3c0,0.1-0.1,0.1-0.1,0.1c-0.1,0.1-0.1,0.2-0.1,0.3c-0.1,0.1-0.2,0.3-0.2,0.4c0,0,0,0.1-0.1,0.1c0,0,0,0,0,0.1
		c0,0.1-0.1,0.2-0.1,0.2c0,0,0,0,0,0c0,0.1-0.1,0.1-0.1,0.2c-0.1,0.2-0.2,0.3-0.3,0.5c0,0,0,0,0,0C10.7,4,10.6,4,10.5,4c0,0,0,0,0,0
		C10.7,4,11,3.9,11.3,3.9c0.2,0,0.5-0.1,0.7-0.1c0.1,0,0.2,0,0.4,0c0.1,0,0.1,0,0.2,0c0,0,0.1,0,0.1,0.1c-0.1,0-0.2,0-0.2,0
		c-0.2,0-0.5,0.1-0.7,0.1c-0.2,0-0.5,0.1-0.7,0.1C10.8,4.1,10.6,4.2,10.4,4.2z"/>
	<path class="st2" d="M20.9,20.3c0,0,0.1-0.1,0.1-0.1c0,0,0.1-0.1,0.1-0.1l0,0c0.1-0.1,0.1-0.1,0.2-0.2l0,0c0,0,0.1-0.1,0.1-0.1l0,0
		c0-0.1,0.1-0.1,0.1-0.2l0,0c0.1-0.1,0.1-0.1,0.2-0.2l0,0c0.1-0.1,0.1-0.1,0.1-0.2l0,0c0,0,0.1-0.1,0.1-0.1c0-0.1,0.1-0.1,0.1-0.2
		c0.2-0.3,0.3-0.5,0.4-0.8c0,0,0,0,0,0l0,0c0-0.1,0.1-0.1,0.1-0.2c0,0,0,0,0,0c0,0,0-0.1,0-0.1c0-0.1,0.1-0.2,0.1-0.3
		c0.1-0.3,0.2-0.5,0.3-0.8c0-0.1,0.1-0.2,0.1-0.4c0-0.1,0-0.1,0-0.2c0-0.1,0-0.1,0-0.2c0,0,0,0,0,0c0.1,0,0.1-0.1,0.1-0.1
		c0,0,0-0.1,0.1-0.1c0,0,0,0,0,0c0-0.1,0.1-0.2,0.1-0.2c0,0,0,0,0-0.1c0,0,0-0.1,0.1-0.1c0,0,0,0,0,0c0-0.1,0.1-0.1,0.1-0.2
		c0-0.1,0.1-0.1,0.1-0.2c0-0.1,0.1-0.1,0.1-0.2c0.1-0.1,0.1-0.2,0.2-0.3c0.1-0.1,0.1-0.1,0.1-0.2c0-0.1,0.1-0.1,0.1-0.2
		c0.1-0.1,0.1-0.2,0.2-0.3c0-0.1,0.1-0.1,0.1-0.2c0,0,0,0,0-0.1c0,0,0-0.1,0.1-0.1c0,0,0,0,0,0c0-0.1,0.1-0.1,0.1-0.2
		c0.1-0.1,0.1-0.2,0.2-0.3c0,0,0,0,0,0c0-0.1,0.1-0.1,0.1-0.2c0,0,0-0.1,0.1-0.1c0,0,0,0,0,0c0-0.1,0.1-0.1,0.1-0.2
		c0-0.1,0.1-0.1,0.1-0.2c0,0,0-0.1,0.1-0.1c0-0.1,0.1-0.2,0.1-0.2c0,0,0-0.1,0-0.1c0,0,0,0,0.1-0.1c0,0,0,0,0.1,0
		c-0.1-0.1,0-0.2-0.1-0.3c0-0.2-0.1-0.4-0.1-0.7c0-0.1,0-0.2-0.1-0.3c-0.1-0.3-0.2-0.7-0.3-1c-0.2-0.5-0.4-1-0.6-1.5
		c-0.2-0.4-0.4-0.8-0.7-1.2c-0.1-0.1-0.2-0.2-0.2-0.4c0,0,0,0,0,0c0,0,0,0,0-0.1c0,0,0,0,0,0c0.1,0,0.1,0.1,0.1,0.2
		c0,0,0,0.1,0.1,0.1c0.1,0,0.1-0.1,0.1-0.2c0,0,0,0,0,0C24,6.2,24,6.1,24,6c0,0,0,0,0,0c0,0,0,0,0,0c0,0,0,0.1,0.1,0.1l0,0
		c0,0,0,0.1,0.1,0.1l0,0c0,0.1,0.1,0.2,0.2,0.2l0,0c0.1,0.1,0.1,0.2,0.2,0.2c0.1,0.1,0.2,0.2,0.2,0.4c0,0.1,0.1,0.1,0.1,0.2l0,0
		c0,0,0,0.1,0.1,0.1l0,0c0.1,0.1,0.1,0.3,0.2,0.4c0,0,0,0,0,0c0,0.1,0.1,0.1,0.1,0.2l0,0c0,0,0,0.1,0.1,0.1c0,0,0,0,0,0.1
		c0,0.1,0,0.1,0.1,0.2l0,0c0,0.1,0.1,0.2,0.1,0.2c0,0,0,0,0,0c0.1,0.1,0.1,0.3,0.2,0.4c0.1,0.2,0.1,0.3,0.2,0.5
		c0,0.1,0.1,0.3,0.1,0.4c0.1,0.2,0.1,0.4,0.2,0.6c0,0.1,0.1,0.3,0.1,0.4c0,0.2,0.1,0.3,0.1,0.5c0,0.1,0,0.2,0.1,0.4
		c0,0.2,0,0.3,0.1,0.5c0,0.2,0,0.4,0.1,0.6c0,0.4,0.1,0.9,0,1.3c0,0.3,0,0.7-0.1,1c0,0.3-0.1,0.6-0.1,1c-0.1,0.3-0.1,0.5-0.2,0.8
		c0,0.2-0.1,0.3-0.1,0.4c0,0,0,0.1,0,0.1c0,0.1-0.1,0.3-0.1,0.4c-0.1,0.4-0.3,0.7-0.4,1.1c-0.1,0.3-0.3,0.7-0.5,1
		c-0.2,0.4-0.5,0.8-0.7,1.2c-0.2,0.3-0.4,0.6-0.6,0.8c-0.2,0.3-0.4,0.5-0.7,0.8c-0.2,0.3-0.5,0.5-0.8,0.8c-0.4,0.4-0.9,0.8-1.4,1.1
		c-0.4,0.3-0.8,0.5-1.2,0.7c-0.1,0.1-0.2,0.1-0.3,0.1c-0.1,0.1-0.3,0.1-0.4,0.2l0,0c-0.1,0-0.1,0-0.2,0.1l0,0
		c-0.1,0-0.2,0.1-0.4,0.2c-0.1,0-0.2,0.1-0.3,0.1c-0.1,0.1-0.3,0.1-0.4,0.2c-0.2,0.1-0.3,0.1-0.5,0.2c-0.2,0.1-0.4,0.1-0.6,0.2
		c-0.1,0-0.3,0.1-0.4,0.1c-0.1,0-0.3,0.1-0.4,0.1c-0.2,0-0.5,0.1-0.7,0.1c-0.2,0-0.4,0-0.6,0.1c0,0-0.1,0-0.1,0c0,0,0,0,0,0
		c0,0,0,0,0,0c0.1,0,0.1,0,0.2,0c0.2,0,0.4-0.1,0.5-0.1c0.4-0.1,0.9-0.2,1.3-0.3c0.3-0.1,0.6-0.2,0.9-0.3c0,0,0.1,0,0.1-0.1
		c0,0,0,0,0,0c-0.1,0-0.1,0,0-0.1c0,0,0,0,0,0c0-0.1,0.1-0.2,0.1-0.3c0,0,0,0,0,0c0.1,0,0.1-0.1,0.1-0.2c0,0,0,0,0,0
		c0.1-0.1,0.1-0.2,0.2-0.3c0,0,0-0.1,0.1-0.1c0-0.1,0-0.1,0.1-0.2c0,0,0,0,0-0.1c0,0,0-0.1,0.1-0.1c0,0,0,0,0,0
		c0-0.1,0.1-0.2,0.1-0.2c0-0.1,0.1-0.2,0.1-0.2c0,0,0.1-0.1,0.1-0.1c0,0,0-0.1,0.1-0.1c0,0,0-0.1,0.1-0.1c0,0,0,0,0-0.1
		c0,0,0-0.1,0-0.1c0.1-0.1,0.1-0.2,0.2-0.3c0,0,0,0,0,0c0.1-0.1,0.1-0.2,0.2-0.3c0,0,0,0,0-0.1c0,0,0,0,0-0.1c0,0,0,0,0,0
		c0.1-0.1,0.1-0.2,0.2-0.3c0,0,0,0,0,0c0-0.1,0.1-0.2,0.1-0.3c0-0.1,0.1-0.2,0.2-0.3c0,0,0,0,0,0c0,0,0,0,0,0c0-0.1,0-0.1,0.1-0.2
		c0,0,0-0.1,0.1-0.1c0,0,0,0,0-0.1c0-0.1,0.1-0.2,0.1-0.2c0,0,0,0,0,0c0-0.1,0.1-0.2,0.1-0.3c0,0,0-0.1,0.1-0.1c0,0,0.1-0.1,0.1-0.1
		c0,0,0-0.1,0.1-0.1c0.1-0.1,0.1-0.1,0.2-0.2c0,0,0.1-0.1,0.1-0.1c0.1,0,0.1-0.1,0.1-0.1l0,0c0,0,0.1-0.1,0.1-0.1l0,0
		C20.8,20.3,20.9,20.3,20.9,20.3z"/>
	<path class="st3" d="M16.2,15.5c0.1-0.1,0.1-0.2,0.2-0.3c0.1-0.2,0.2-0.5,0.2-0.7c0,0,0,0,0,0c0.1,0,0-0.1,0-0.1c0,0,0,0,0,0
		c0,0,0,0,0,0c0,0,0,0,0,0c0-0.1,0.1-0.1,0.1-0.2c0-0.1,0.1-0.1,0.1-0.1c0-0.1,0.1-0.1,0.1-0.2c0.1-0.1,0.1-0.2,0.2-0.3
		c0,0,0-0.1,0.1-0.1c0,0,0,0,0,0c0-0.1,0.1-0.2,0.1-0.3c0,0,0-0.1,0.1-0.1c0-0.1,0.1-0.1,0.1-0.2c0-0.1,0.1-0.2,0.1-0.2c0,0,0,0,0,0
		c0-0.1,0.1-0.2,0.1-0.2c0.1-0.1,0.1-0.3,0.2-0.4c0,0,0.1-0.1,0.1-0.2c0-0.1,0.1-0.2,0.1-0.2c0,0,0-0.1,0.1-0.1c0,0,0,0,0,0
		c0-0.1,0.1-0.2,0.2-0.3c0-0.1,0.1-0.2,0.1-0.2c0,0,0,0,0-0.1c-0.2-0.4-0.5-0.8-0.7-1.2c-0.1-0.1-0.2-0.3-0.3-0.4
		c-0.2-0.2-0.4-0.4-0.6-0.6c-0.2-0.2-0.4-0.3-0.6-0.5C16.3,8,16.2,7.9,16,7.8c-0.2-0.1-0.4-0.2-0.7-0.3c-0.2-0.1-0.4-0.2-0.6-0.2
		c-0.2-0.1-0.5-0.1-0.7-0.2c-0.2,0-0.4-0.1-0.6-0.1c0,0-0.1,0-0.1,0c0,0,0,0,0,0c-0.1,0-0.2,0-0.3,0c0,0,0,0,0,0c0,0,0,0,0,0
		c0.2,0,0.5,0,0.7,0c0.3,0,0.5,0,0.8,0.1c0.3,0,0.5,0.1,0.8,0.2c0.2,0.1,0.5,0.2,0.7,0.2c0.1,0,0.1,0.1,0.2,0.1c0,0,0,0,0,0
		c0.1,0.1,0.2,0.1,0.3,0.2c0.1,0,0.1,0.1,0.2,0.1C16.8,8,16.9,8,17,8.1c0.2,0.1,0.4,0.3,0.6,0.4c0.1,0.1,0.2,0.2,0.3,0.3
		C18,8.9,18.1,9,18.2,9.1c0.1,0.1,0.3,0.3,0.4,0.5c0.2,0.2,0.3,0.4,0.4,0.6c0.1,0.2,0.2,0.4,0.3,0.6c0.1,0.1,0.1,0.3,0.2,0.5
		c0,0,0,0,0,0c0,0-0.1,0-0.1-0.1c0-0.1-0.1-0.2-0.2-0.3c0,0,0,0,0,0c0,0.1-0.1,0.2-0.1,0.3c-0.1,0.1-0.1,0.1-0.1,0.2c0,0,0,0,0,0
		c-0.1,0,0,0.1,0,0.1c0.1,0.3,0.2,0.6,0.2,1c0,0.2,0.1,0.5,0.1,0.7c0,0.3,0,0.6,0,0.8c0,0.1,0,0.2,0,0.3c0,0.1,0,0.2,0,0.3
		c0,0.2,0,0.3-0.1,0.5c0,0.2-0.1,0.3-0.1,0.5c0,0.2-0.1,0.3-0.2,0.5c0,0,0,0.1-0.1,0.1c0,0,0,0.1-0.1,0.1c0,0,0,0,0,0
		c0,0.1-0.1,0.1-0.1,0.2c0,0.1-0.1,0.2-0.1,0.2c0,0,0,0,0,0c0,0.1-0.1,0.2-0.1,0.3c0,0.1-0.1,0.1-0.1,0.2c-0.1,0.1-0.1,0.2-0.2,0.3
		c0,0,0,0,0,0C18,17.7,18,17.9,17.9,18c-0.1,0.1-0.2,0.3-0.3,0.4c-0.3,0.3-0.5,0.5-0.8,0.8c-0.2,0.1-0.4,0.3-0.6,0.4
		c-0.3,0.2-0.6,0.3-0.9,0.5c-0.3,0.1-0.7,0.3-1.1,0.4c-0.1,0-0.3,0.1-0.4,0.1c0.1,0,0.2,0,0.3,0c0.1,0,0.3,0,0.4-0.1
		c0.2,0,0.3-0.1,0.5-0.1c0.3-0.1,0.7-0.2,1-0.3c0.1,0,0.1,0,0.2-0.1c0,0,0.1,0,0.1,0C16.1,20,16,20,15.9,20
		c-0.2,0.1-0.4,0.2-0.6,0.2c-0.2,0.1-0.5,0.1-0.7,0.2c-0.3,0.1-0.6,0.1-0.9,0.1c-0.2,0-0.3,0-0.5,0c0,0-0.1,0-0.1-0.1
		c0-1.1,0-2.2,0-3.3c0,0,0-0.1,0.1-0.1c0.2,0,0.3,0,0.5,0c0.3,0,0.6-0.1,0.9-0.3c0.4-0.2,0.8-0.4,1.1-0.8
		C15.9,15.9,16.1,15.7,16.2,15.5C16.2,15.5,16.2,15.5,16.2,15.5z"/>
	<path class="st0" d="M10.4,4.2c0,0,0.1,0,0.1-0.1c0.2-0.1,0.4-0.1,0.6-0.2c0.3,0,0.5-0.1,0.8-0.1c0.1,0,0.3,0,0.4-0.1c0,0,0,0,0,0
		c0.1,0,0.2,0,0.3,0c0.1,0,0.1,0,0.2,0c0.3,0,0.6,0,0.9,0c0.2,0,0.4,0,0.5,0c0.1,0,0.2,0,0.2,0c-0.1,0-0.1-0.1,0-0.1
		c0.1-0.1,0.1-0.3,0.2-0.4c0,0,0-0.1,0-0.1c0,0,0-0.1,0.1-0.1c0,0,0,0,0,0c0-0.1,0.1-0.2,0.2-0.4c0.1-0.1,0.2-0.3,0.2-0.4
		c0.1-0.2,0.2-0.3,0.3-0.5c0.1-0.1,0.2-0.3,0.3-0.4c0,0,0-0.1,0.1-0.1C15.9,1.2,15.9,1.1,16,1c0,0,0,0,0.1,0c0.1,0,0.1,0,0.2,0.1
		c0,0,0,0,0,0c0,0,0.1,0,0.1,0c0.4,0.1,0.8,0.2,1.1,0.4c0.1,0.1,0.3,0.1,0.4,0.2c0.2,0.1,0.4,0.2,0.6,0.3c0.1,0,0.1,0.1,0.2,0.1
		c0.1,0,0.2,0.1,0.3,0.1c0.4,0.2,0.7,0.4,1,0.6c0,0,0,0,0,0c0.2,0.1,0.3,0.2,0.5,0.3c0.3,0.2,0.5,0.4,0.8,0.6
		C21.6,4,22,4.3,22.2,4.6c0,0,0,0.1,0,0.1c-0.1,0.1-0.1,0.2-0.2,0.3c0,0,0,0.1-0.1,0.1c0,0,0,0,0,0.1c0,0.2-0.1,0.3-0.2,0.4
		c0,0,0,0,0,0.1c0,0,0,0.1-0.1,0.1c0,0,0,0,0,0c0,0.1,0,0.1-0.1,0.1c0,0.1-0.1,0.2-0.1,0.3c-0.1,0.1-0.1,0.3-0.2,0.4c0,0,0,0,0,0.1
		c0,0,0,0.1-0.1,0.1c0,0,0,0,0,0C21,6.9,21,7,20.9,7c0,0.1-0.1,0.1-0.1,0.1c0.1,0.2,0.3,0.3,0.4,0.5c0.1,0.2,0.3,0.4,0.4,0.5
		c0.1,0.2,0.3,0.4,0.4,0.6c0,0,0,0.1,0,0.1c-0.1-0.1-0.1-0.1-0.1-0.2c-0.1-0.1-0.2-0.2-0.2-0.4c-0.1-0.2-0.2-0.3-0.4-0.5
		c-0.3-0.5-0.7-0.9-1.2-1.3c-0.3-0.2-0.5-0.5-0.8-0.7c-0.2-0.1-0.4-0.3-0.5-0.4c-0.2-0.1-0.4-0.2-0.6-0.3C18,5,17.9,4.9,17.7,4.8
		c-0.2-0.1-0.3-0.1-0.5-0.2c-0.1-0.1-0.3-0.1-0.4-0.2c-0.2-0.1-0.4-0.2-0.7-0.2c-0.2-0.1-0.5-0.1-0.7-0.2c-0.3-0.1-0.7-0.1-1-0.2
		c-0.3,0-0.5,0-0.8-0.1c-0.3,0-0.5,0-0.8,0c-0.3,0-0.7,0-1,0.1c-0.2,0-0.3,0-0.5,0.1c-0.2,0-0.4,0.1-0.6,0.1
		C10.6,4.2,10.5,4.2,10.4,4.2z"/>
	<path class="st4" d="M10.8,7.5c0.1,0,0.1,0,0.2-0.1c0.3-0.1,0.5-0.2,0.8-0.3c0.2,0,0.4-0.1,0.6-0.1c0.1,0,0.2,0,0.4,0c0,0,0,0,0,0
		c0,0,0,0,0,0c0,0-0.1,0-0.1,0c-0.1,0-0.1,0.1-0.1,0.1c0,0.1,0,0.1-0.1,0.2c0,0,0,0,0,0c0,0.1-0.1,0.2-0.2,0.3
		c0,0.1-0.1,0.1-0.1,0.2C12,8,12,8,11.9,8.1c0,0,0,0.1-0.1,0.1c0,0,0,0,0,0c0,0.1-0.1,0.2-0.1,0.3c0,0.1-0.1,0.2-0.2,0.3
		c0,0,0,0,0,0c-0.1,0.1-0.1,0.2-0.2,0.3c-0.1,0.1-0.1,0.2-0.2,0.3c-0.1,0.1-0.2,0.2-0.2,0.4c0,0,0,0.1-0.1,0.1c0,0,0,0,0,0
		c0,0.1-0.1,0.2-0.1,0.3c0,0.1-0.1,0.1-0.1,0.2c0,0,0,0,0,0c0,0.1-0.1,0.2-0.1,0.3c0,0,0,0,0,0.1c0,0-0.1,0.1-0.1,0.1c0,0,0,0,0,0.1
		c0,0,0,0,0,0.1c0,0.1-0.1,0.2-0.2,0.3c0,0,0,0,0,0.1c0,0,0,0.1-0.1,0.1c0,0,0,0,0,0.1c0,0,0,0.1-0.1,0.1c0,0,0,0,0,0.1
		c0,0.1-0.1,0.2-0.1,0.2c0,0,0,0,0,0c0,0.1-0.1,0.2-0.1,0.2c0,0.1-0.1,0.2-0.2,0.2c0,0,0,0,0,0c0,0.1-0.1,0.1-0.1,0.2
		c0,0.1-0.1,0.2-0.1,0.3c0,0.1-0.1,0.1-0.1,0.2c0,0,0,0,0,0.1c0,0,0,0.1-0.1,0.1c0,0,0,0,0,0c0,0.1-0.1,0.2-0.2,0.3c0,0,0,0.1,0,0.1
		c0,0.1-0.1,0.1-0.1,0.2c0,0,0,0,0,0c0,0.1-0.1,0.2-0.2,0.3c0,0-0.1,0.1-0.1,0.1c0,0.1-0.1,0.1-0.1,0.2c0,0.1-0.1,0.2-0.2,0.3
		c0,0.1-0.1,0.2-0.1,0.2C8,14.9,8,15,8,15c0,0.1-0.1,0.2-0.2,0.3c0,0.1-0.1,0.1-0.1,0.2c0,0.1,0,0.1-0.1,0.1c0,0,0,0,0,0.1
		c0,0.1-0.1,0.2-0.1,0.2c-0.1,0.1-0.1,0.2-0.1,0.3c0,0,0,0.1,0,0.1c0,0,0,0,0,0c0,0.1-0.1,0.1-0.1,0.2c0,0.1-0.1,0.1-0.1,0.2
		c0,0,0,0.1,0,0.1c0,0,0,0.1-0.1,0.1c0,0,0,0,0,0c0,0.1-0.1,0.2-0.2,0.3c0,0,0,0.1,0,0.1c0,0.5,0,1.1,0,1.6c0,0.1,0,0.1-0.1,0.2
		c0,0,0-0.1,0-0.1c0-0.1,0-0.1,0-0.2c0-0.5,0-1,0-1.5c-0.1-1.2,0-2.4,0-3.5c0-0.2,0-0.3,0-0.5c0-0.1,0-0.3,0-0.4
		c0-0.2,0-0.4,0.1-0.6c0-0.2,0.1-0.3,0.1-0.5c0-0.1,0.1-0.2,0.1-0.3c0-0.2,0.1-0.3,0.2-0.5c0.1-0.2,0.1-0.3,0.2-0.4
		c0-0.1,0.1-0.2,0.2-0.3c0.1-0.2,0.2-0.4,0.4-0.6C8,9.5,8.2,9.3,8.5,9c0.2-0.2,0.4-0.4,0.6-0.6C9.4,8.3,9.6,8.1,9.8,8
		c0.1-0.1,0.3-0.2,0.4-0.2C10.4,7.7,10.6,7.6,10.8,7.5z"/>
	<path class="st5" d="M20.1,2.8c-0.4-0.3-0.8-0.5-1.2-0.7c0,0-0.1-0.1-0.1-0.1c-0.2-0.1-0.4-0.2-0.6-0.3c-0.1-0.1-0.3-0.1-0.4-0.2
		c-0.4-0.2-0.8-0.3-1.2-0.4C16.3,1,16,1,15.6,0.9c-0.4-0.1-0.8-0.2-1.3-0.2c-0.2,0-0.5,0-0.7-0.1c-0.2,0-0.4,0-0.5,0
		c0,0-0.1,0-0.1,0c0.2,0,0.4,0,0.6,0c0.1,0,0.1,0,0.2,0c0,0,0,0,0,0c0,0,0,0,0,0c0.1,0,0.2,0,0.3,0c0.2,0,0.4,0,0.6,0.1
		c0.1,0,0.3,0,0.4,0c0.3,0,0.6,0.1,0.8,0.2C16.4,0.9,16.7,1,17,1.1c0.3,0.1,0.6,0.2,0.8,0.3c0,0,0.1,0,0.1,0
		c0.1,0.1,0.3,0.1,0.4,0.2c0.2,0.1,0.4,0.2,0.7,0.3c0.2,0.1,0.4,0.2,0.6,0.3c0.1,0.1,0.3,0.1,0.4,0.2c0.2,0.1,0.4,0.2,0.5,0.3
		c0.1,0.1,0.3,0.2,0.4,0.3c0.3,0.2,0.5,0.4,0.8,0.6C21.8,3.7,22,3.8,22.2,4c0.1,0.1,0.3,0.3,0.4,0.4c0.2,0.3,0.5,0.5,0.7,0.8
		c0.1,0.1,0.1,0.2,0.2,0.3c0.2,0.2,0.4,0.4,0.5,0.7c0,0-0.1,0-0.1-0.1c0,0,0,0,0,0c0,0,0,0,0,0c0,0.1,0.1,0.1,0,0.2c0,0,0,0.1,0,0.1
		c0,0.1-0.1,0.1-0.1,0.2c0,0,0,0,0,0c-0.1-0.1-0.1-0.1-0.1-0.2c0,0-0.1-0.1-0.1-0.1c0.5,0.8,1,1.7,1.4,2.6c0.4,0.9,0.6,1.8,0.8,2.8
		c0,0,0,0,0-0.1c0,0,0,0,0,0c0,0,0,0,0,0c0,0.1,0,0.1-0.1,0.1c0,0,0,0,0,0c0,0.1-0.1,0.2-0.1,0.2c0,0.1-0.1,0.2-0.1,0.2
		c0,0,0,0.1-0.1,0.1c0,0,0,0,0,0c0,0,0,0.1,0,0.1c-0.1,0-0.1,0.1-0.1,0.2c0,0,0,0,0,0c-0.1,0-0.1,0.1-0.1,0.1c0,0,0,0.1-0.1,0.1
		c0,0.1-0.1,0.1-0.1,0.2c0,0,0,0.1-0.1,0.1c0,0,0,0,0,0c0,0.1-0.1,0.2-0.1,0.3c0,0.1,0,0.2-0.1,0.2c-0.1,0.1-0.1,0.2-0.1,0.3
		c0,0,0,0,0,0c-0.1,0-0.1,0.1-0.1,0.1c0,0,0,0,0,0c-0.1,0-0.1,0.1-0.1,0.2c0,0,0,0,0,0c-0.1,0-0.1,0.2-0.1,0.2c0,0,0,0,0,0
		c-0.1,0-0.1,0.1-0.1,0.1c-0.1,0.1-0.1,0.2-0.1,0.2c-0.1,0.1,0,0.1-0.1,0.2c0,0,0,0,0,0.1c0,0,0,0.1,0,0.1c-0.1,0,0,0.1-0.1,0.1
		c0,0.1-0.1,0.1-0.1,0.2c0,0,0,0,0,0.1c0,0,0,0.1-0.1,0.1c0,0,0,0.1,0,0.1c0,0,0,0,0,0c-0.1,0-0.1,0.1-0.1,0.1c0,0,0,0,0,0
		C23,16,23,16.1,23,16.2c0,0,0,0,0,0c-0.1,0.1-0.1,0.2-0.1,0.2c0,0,0,0.1,0,0.1c-0.1,0.1-0.1,0.3-0.1,0.4c0,0.1-0.1,0.2-0.1,0.3
		c0,0,0,0,0,0.1c0,0,0,0,0,0c-0.1,0,0,0.1-0.1,0.1c0,0,0,0,0,0c0,0,0,0,0,0c-0.1,0.1-0.1,0.2-0.2,0.3c0,0,0,0,0,0
		c0-0.1,0.1-0.2,0.1-0.4c0.1-0.3,0.2-0.5,0.3-0.8c0.1-0.3,0.2-0.6,0.2-0.9c0.1-0.3,0.1-0.6,0.1-0.9c0-0.4,0.1-0.9,0.1-1.3
		c0-0.3,0-0.6-0.1-0.9c0-0.3-0.1-0.6-0.1-0.8c-0.1-0.3-0.1-0.6-0.2-0.9c-0.1-0.2-0.1-0.4-0.2-0.6c0-0.1-0.1-0.2-0.1-0.3
		c0-0.1,0-0.1,0-0.2c0,0,0,0,0-0.1c0-0.1,0.1-0.2,0.1-0.3c0,0,0,0,0,0c0-0.1,0.1-0.2,0.1-0.3C23,9.1,23,8.9,23.2,8.8
		c0.1-0.1,0.1-0.1,0.1-0.2c0-0.1,0.1-0.2,0.1-0.2c0.1-0.1,0.1-0.2,0.2-0.3c0-0.1,0.1-0.1,0.1-0.2c0,0,0-0.1,0.1-0.1c0,0,0,0,0,0
		c0.1,0,0.1-0.1,0.1-0.2c0,0,0.1,0,0.1-0.1C24,7.4,24,7.3,24,7.2c0,0,0-0.1,0.1-0.1c0,0,0.1,0,0.1,0.1c-0.4-0.7-0.8-1.3-1.3-1.9
		c-0.3-0.4-0.7-0.8-1.1-1.1c-0.4-0.3-0.7-0.6-1.1-0.9C20.5,3,20.3,2.9,20.1,2.8z"/>
	<path class="st5" d="M20.3,20.9c0,0-0.1,0.1-0.1,0.1c0,0,0,0.1-0.1,0.1c-0.1,0-0.1,0.1-0.1,0.2c0,0,0,0.1,0,0.1
		c-0.1,0-0.1,0-0.1,0.1c0,0,0,0.1-0.1,0.1c0,0,0,0,0,0c0,0.1-0.1,0.1-0.1,0.2c0,0,0,0,0,0c-0.1,0-0.1,0.1-0.1,0.2c0,0,0,0,0,0
		c-0.1,0,0,0.1-0.1,0.1c0,0,0,0,0,0c-0.1,0-0.1,0.1-0.1,0.2c0,0,0,0,0,0c-0.1,0-0.1,0.1-0.1,0.1c0,0.1-0.1,0.1-0.1,0.2c0,0,0,0,0,0
		c0,0,0,0.1-0.1,0.1c-0.1,0,0,0.1-0.1,0.1c0,0,0,0,0,0c-0.1,0-0.1,0.1-0.1,0.2c0,0,0,0,0,0.1c0,0,0,0.1-0.1,0.1c0,0,0,0,0,0
		c0,0.1,0,0.1-0.1,0.1c0,0,0,0.1-0.1,0.1c0,0,0,0.1-0.1,0.2c0,0,0,0,0,0c0,0.1-0.1,0.2-0.1,0.3c0,0,0,0-0.1,0.1
		c0,0.1-0.1,0.1-0.1,0.2c0,0-0.1,0.1-0.1,0.1c0,0,0,0.1-0.1,0.1c0,0,0,0,0,0c0,0.1-0.1,0.2-0.1,0.3c0,0,0,0,0,0
		c-0.1,0.1-0.1,0.2-0.2,0.3c0,0,0,0,0,0c-0.1,0-0.1,0.1-0.1,0.1c0,0,0,0,0,0c-0.1,0-0.1,0.1-0.1,0.2c0,0,0,0.1-0.1,0.2c0,0,0,0,0,0
		c0,0.1,0,0.1-0.1,0.1c0,0,0,0.1-0.1,0.1c0,0,0,0,0,0c0,0,0,0,0,0c0,0,0,0,0.1,0c0,0,0,0,0.1,0c-1,0.4-2.1,0.7-3.1,0.8c0,0,0,0,0,0
		c0,0,0.1,0,0.1,0c0.1,0,0.3,0,0.4,0c0.2,0,0.4,0,0.6-0.1c0.2,0,0.4-0.1,0.6-0.1c0.2-0.1,0.5-0.1,0.7-0.2c0.2-0.1,0.4-0.1,0.6-0.2
		c0.2-0.1,0.5-0.2,0.7-0.2c0.2-0.1,0.5-0.2,0.7-0.3c0,0,0,0,0.1,0c-0.1,0.1-0.3,0.1-0.4,0.2c-0.1,0-0.2,0.1-0.3,0.1
		c-0.2,0.1-0.3,0.1-0.5,0.2c-0.2,0.1-0.4,0.1-0.6,0.2c-0.2,0.1-0.4,0.1-0.6,0.2c-0.2,0.1-0.5,0.1-0.7,0.1c-0.3,0.1-0.7,0.1-1,0.1
		c-0.4,0-0.8,0.1-1.3,0.1c0,0,0,0,0,0c0,0,0,0,0-0.1c0-0.4,0-0.8,0-1.3c0,0,0,0,0,0c0,0,0,0,0,0c0,0,0,0,0,0c0,0,0,0.1,0,0.1
		c0,0,0,0.1,0,0.1c0,0,0,0,0,0c0-0.1,0.1-0.1,0.1-0.2c0,0,0-0.1,0.1-0.1c0-0.1,0.1-0.1,0.1-0.2c0,0,0,0,0,0c0.1-0.1,0.1-0.2,0.1-0.2
		c0,0,0,0,0-0.1c0-0.1,0.1-0.1,0.1-0.2c0,0,0,0,0,0c0-0.1,0.1-0.2,0.1-0.3c0-0.1,0.1-0.1,0.1-0.2c0,0,0,0,0,0c0-0.1,0.1-0.2,0.2-0.4
		c0-0.1,0.1-0.1,0.1-0.2c0,0,0,0,0,0c0.2,0,0.5-0.1,0.7-0.1c0.2,0,0.4-0.1,0.7-0.2c0.2-0.1,0.4-0.1,0.6-0.2c0.2-0.1,0.4-0.1,0.6-0.2
		c0.2-0.1,0.3-0.2,0.5-0.2c0.2-0.1,0.4-0.2,0.7-0.4c0.4-0.3,0.9-0.5,1.3-0.9C19.8,21.3,20,21.2,20.3,20.9
		C20.2,20.9,20.2,20.9,20.3,20.9z"/>
	<path class="st3" d="M13.1,0.5C13.1,0.6,13.1,0.6,13.1,0.5c0.2,0,0.3,0,0.5,0c0.3,0,0.5,0,0.8,0.1c0.2,0,0.4,0.1,0.7,0.1
		c0.1,0,0.3,0.1,0.4,0.1C15.8,0.9,16.1,1,16.4,1c0.4,0.1,0.7,0.2,1.1,0.4c0.2,0.1,0.4,0.1,0.6,0.2c0.2,0.1,0.3,0.1,0.5,0.2
		c0.1,0,0.1,0.1,0.2,0.1c0,0,0.1,0,0.1,0.1c-0.1,0-0.1,0-0.1-0.1c-0.2-0.1-0.5-0.2-0.7-0.3c-0.2-0.1-0.4-0.1-0.5-0.2
		c-0.3-0.1-0.6-0.2-0.9-0.3c0,0-0.1-0.1-0.1,0c0,0,0,0,0,0C16.2,1,16.1,1,16,1c0,0-0.1,0.1-0.1,0.1c0,0,0,0,0,0
		c-0.1,0.1-0.1,0.3-0.2,0.4c0,0,0,0,0,0.1c0,0.1,0,0.1-0.1,0.1c0,0,0,0,0,0c0,0.1-0.1,0.2-0.1,0.2c0,0,0,0,0,0.1c0,0,0,0.1-0.1,0.1
		c0,0,0,0,0,0c-0.1,0.2-0.2,0.3-0.2,0.4c0,0,0,0,0,0.1c0,0,0,0,0,0.1c0,0.1-0.1,0.2-0.1,0.2c0,0,0,0,0,0c0,0.1,0,0.1-0.1,0.1
		c0,0,0,0,0,0c0,0.1-0.1,0.1-0.1,0.2c-0.1,0.1-0.1,0.2-0.2,0.4c0,0,0,0.1,0,0.1c0,0,0,0,0.1,0c-0.7-0.1-1.3-0.1-2,0
		c0-0.1-0.1,0-0.1,0c0,0,0,0-0.1,0c-0.3,0-0.6,0-0.8,0c-0.3,0-0.7,0.1-1,0.2c-0.1,0-0.1,0-0.2,0C10.4,4,10.4,4,10.5,4
		c0.1,0,0.1,0,0.2,0c0,0,0,0,0,0c0-0.1,0.1-0.2,0.1-0.3c0.1,0,0-0.1,0.1-0.1c0,0,0-0.1,0.1-0.1c0.1-0.1,0.1-0.2,0.2-0.3
		c0.1,0,0.1-0.1,0.1-0.2c0,0,0,0,0-0.1c0.1-0.1,0.1-0.2,0.2-0.3c0,0,0-0.1,0.1-0.1c0.1,0,0-0.1,0.1-0.1c0,0,0,0,0,0
		c0.1,0,0.1-0.1,0.1-0.2c0,0,0-0.1,0.1-0.2c0,0,0,0,0,0c0-0.1,0-0.1,0.1-0.1c0,0,0,0,0,0c0-0.1,0-0.1,0.1-0.1c0-0.1,0.1-0.1,0.1-0.2
		c0,0,0,0,0,0c0.1,0,0.1-0.1,0.1-0.2c0,0,0-0.1,0.1-0.2c0-0.1,0.1-0.1,0.1-0.1c0,0,0-0.1,0.1-0.1c0,0,0-0.1,0.1-0.1c0,0,0-0.1,0-0.1
		c0,0,0,0,0,0c-0.1,0-0.2,0-0.3,0c-0.1,0-0.3,0-0.4,0c-0.2,0-0.4,0-0.6,0.1c-0.2,0-0.5,0.1-0.7,0.1c-0.1,0-0.3,0.1-0.4,0.1
		C9.9,1,9.7,1.1,9.5,1.1C9.4,1.2,9.2,1.2,9,1.3c-0.1,0-0.1,0-0.2,0.1c0,0,0,0,0,0c0.1,0,0.2-0.1,0.2-0.1C9.3,1.2,9.5,1.1,9.8,1
		c0.3-0.1,0.6-0.2,1-0.2c0.3,0,0.5-0.1,0.8-0.1c0.2,0,0.4,0,0.6-0.1c0.1,0,0.3,0,0.4,0C12.7,0.5,12.9,0.6,13.1,0.5z"/>
	<path class="st6" d="M13,10.4c0,0.1-0.1,0-0.1,0c0,0,0,0,0,0c-0.1,0-0.3,0-0.4,0.1c-0.2,0-0.3,0.1-0.5,0.1
		c-0.3,0.1-0.6,0.3-0.8,0.5c-0.3,0.3-0.5,0.6-0.7,1c-0.1,0.3-0.2,0.6-0.3,0.9C10,13.3,10,13.6,10,14c0,0.1,0,0.2,0,0.4
		c-0.1,3.2,0,6.5,0,9.7c0,0.8,0,1.6,0,2.4c0,0.1,0,0.1-0.1,0.1c-0.2,0-0.3-0.1-0.5-0.1c0,0,0,0,0,0c0,0,0-0.1,0-0.1
		c0-0.4,0-0.9,0-1.3c0-0.8,0-1.6,0-2.4c0-1.1,0-2.1,0-3.2c0-1,0-2,0-2.9c0-0.2,0-0.3,0-0.5c0-0.4,0-0.7,0-1.1c0-0.3,0-0.6,0-0.9
		c0-0.2,0-0.3,0-0.5c0-0.3,0.1-0.6,0.2-0.9c0.2-0.5,0.5-0.9,0.9-1.3c0.3-0.3,0.7-0.5,1.1-0.6c0.2-0.1,0.4-0.1,0.7-0.2
		c0.2,0,0.4-0.1,0.5-0.1C12.8,10.4,12.9,10.4,13,10.4z"/>
	<path class="st3" d="M20.1,2.8c0.1,0,0.2,0.1,0.2,0.2c0.3,0.2,0.5,0.4,0.8,0.6c0.1,0.1,0.3,0.3,0.4,0.4c0.3,0.2,0.5,0.5,0.7,0.7
		c0.2,0.2,0.4,0.4,0.6,0.7c0.3,0.4,0.6,0.8,0.9,1.1C23.8,6.6,24,6.8,24.1,7c0,0.1,0.1,0.1,0.1,0.2c0,0,0,0,0,0c0,0,0-0.1-0.1-0.1
		c0,0,0,0,0,0.1c0,0.1-0.1,0.2-0.1,0.2c0,0.1-0.1,0.1-0.1,0.2c-0.1,0.1-0.1,0.1-0.1,0.2c-0.1,0,0,0.1-0.1,0.2c0,0,0,0,0,0
		c0,0,0,0.1-0.1,0.1c-0.1,0,0,0.1-0.1,0.1c0,0,0,0,0,0c0,0-0.1,0.1-0.1,0.1c0,0,0,0,0,0c0,0-0.1,0.1-0.1,0.1c0,0,0,0.1-0.1,0.1
		c0,0,0,0,0,0.1c0,0,0,0.1-0.1,0.1c0,0,0,0,0,0C23.1,8.9,23,9,23,9.1c0,0.1-0.1,0.1-0.1,0.1c0,0,0,0.1-0.1,0.1c0,0,0,0.1-0.1,0.1
		c0,0,0,0,0,0c0,0,0,0-0.1,0.1c0,0.1-0.1,0.1-0.1,0.2c0,0-0.1,0-0.1,0.1c0,0.1,0,0.1,0,0.2c0,0.1,0.1,0.1,0.1,0.2
		c-0.1-0.1-0.1-0.3-0.2-0.5c-0.1-0.2-0.1-0.3-0.2-0.5C22.1,9.2,22.1,9,22,8.8c0-0.1,0-0.1-0.1-0.2c-0.1-0.1-0.2-0.3-0.2-0.4
		c-0.1-0.2-0.2-0.3-0.4-0.5c-0.1-0.2-0.3-0.3-0.4-0.5c0-0.1-0.1-0.1-0.1-0.1c0,0,0,0,0,0c0,0,0,0,0,0c0.1,0,0.1,0,0.1-0.1
		C21,6.9,21,6.8,21.1,6.7c0,0,0,0,0,0c0-0.1,0.2-0.2,0.2-0.4c0.1-0.1,0.1-0.2,0.2-0.2c0-0.1,0.1-0.2,0.1-0.3c0,0,0,0,0,0
		c0.1-0.1,0.1-0.2,0.2-0.3c0.1-0.1,0.1-0.1,0.1-0.2c0,0,0,0,0,0c0-0.2,0.1-0.2,0.2-0.4c0-0.1,0.1-0.2,0.1-0.2c0,0,0,0,0-0.1
		c-0.2-0.2-0.4-0.4-0.6-0.6c-0.1-0.1-0.2-0.2-0.3-0.3c-0.1-0.1-0.2-0.2-0.3-0.3c-0.2-0.2-0.4-0.3-0.6-0.5C20.3,3,20.2,2.9,20.1,2.8z
		"/>
	<path class="st5" d="M16.1,19.9c-0.1,0-0.1,0-0.1,0c-0.2,0.1-0.4,0.2-0.6,0.2c-0.2,0.1-0.3,0.1-0.5,0.1c-0.2,0.1-0.5,0.1-0.8,0.1
		c-0.1,0-0.2,0-0.2,0c-0.1,0-0.1,0-0.2,0c0,0,0,0,0,0c0,0,0,0,0,0c0.1,0,0.2,0,0.3-0.1c0.2,0,0.3-0.1,0.5-0.1c0.1,0,0.3-0.1,0.4-0.1
		c0.2-0.1,0.4-0.2,0.6-0.2c0.2-0.1,0.4-0.2,0.6-0.3c0.2-0.1,0.4-0.3,0.6-0.4c0.2-0.2,0.4-0.3,0.6-0.5c0.1-0.1,0.3-0.3,0.4-0.5
		c0-0.1,0.1-0.1,0.2-0.2c0,0,0-0.1,0.1-0.1c0-0.1,0.1-0.1,0.1-0.2c0,0,0-0.1,0.1-0.1c0.1-0.1,0-0.2,0.1-0.2c0,0,0,0,0-0.1
		c0.1-0.1,0.1-0.2,0.2-0.3c0,0,0,0,0-0.1c0-0.1,0.1-0.1,0.1-0.2c0,0,0,0,0,0c0-0.1,0-0.1,0.1-0.2c0,0,0,0,0,0c0,0,0-0.1,0.1-0.1
		c0.1,0,0.1-0.1,0.1-0.2c0-0.1,0.1-0.2,0.1-0.2c0-0.1,0-0.2,0.1-0.2c0-0.1,0-0.2,0.1-0.3c0-0.1,0.1-0.3,0.1-0.4c0-0.1,0-0.2,0.1-0.3
		c0-0.2,0-0.3,0.1-0.5c0-0.2,0-0.5,0-0.7c0-0.3,0-0.5-0.1-0.8c0-0.3-0.1-0.6-0.2-0.8c0-0.2-0.1-0.3-0.1-0.5c0,0,0-0.1,0,0
		c0,0,0,0,0,0c0,0,0-0.1,0-0.1c0-0.1,0.1-0.1,0.1-0.2c0-0.1,0.1-0.1,0.1-0.2c0,0,0,0,0,0c0,0,0,0,0,0c0.1,0.1,0.1,0.3,0.2,0.4
		c0,0,0,0.1,0,0.1c0.1,0.2,0.1,0.3,0.2,0.5c0.1,0.2,0.1,0.4,0.2,0.7c0,0.2,0.1,0.5,0.1,0.7c0,0.3,0,0.5,0,0.8c0,0.4-0.1,0.9-0.1,1.3
		c0,0.2-0.1,0.4-0.2,0.7c-0.1,0.3-0.2,0.6-0.3,0.8c-0.1,0.3-0.3,0.5-0.4,0.8c-0.2,0.3-0.3,0.5-0.5,0.7c-0.2,0.3-0.5,0.6-0.8,0.8
		c-0.2,0.1-0.4,0.3-0.5,0.4c-0.2,0.1-0.4,0.3-0.6,0.4C16.4,19.8,16.3,19.9,16.1,19.9z"/>
	<path class="st7" d="M0,17.7c0-0.2,0-0.4,0-0.6c0,0,0-0.1,0-0.1c0.3-0.2,0.6-0.3,0.8-0.5C1.2,16.4,1.6,16.2,2,16c0.1,0,0,0,0-0.1
		c-0.2-0.1-0.5-0.3-0.7-0.4c-0.4-0.2-0.8-0.5-1.2-0.7c0,0-0.1,0-0.1-0.1c0-0.2,0-0.3,0-0.5c0-0.1,0-0.1,0.1-0.1c0.3,0,0.7,0,1,0
		c0.2,0,0.4,0,0.6,0c0.5,0,0.9,0,1.4,0c0.1,0,0.1,0,0.1,0.1c0,0.2,0,0.4,0,0.5c0,0.1,0,0.1-0.1,0.1c-0.6,0-1.2,0-1.7,0
		c0,0-0.1,0-0.1,0c0,0,0,0,0.1,0.1c0.4,0.2,0.7,0.4,1.1,0.6c0,0,0,0,0,0c0,0,0.1,0,0.1,0.1c0,0,0,0,0,0.1c-0.1,0.1-0.2,0.2-0.3,0.3
		c-0.1,0.1-0.2,0.2-0.3,0.3c-0.2,0.2-0.3,0.4-0.5,0.5c-0.1,0.2-0.3,0.3-0.4,0.5c0,0,0,0-0.1,0.1c-0.1,0.1-0.2,0.2-0.3,0.3
		c0,0-0.1,0-0.1,0C0.5,17.8,0.3,17.8,0,17.7C0.1,17.8,0,17.8,0,17.7z"/>
	<path class="st7" d="M1.7,21.7C1.8,21.8,1.9,21.9,2,22c0.2,0.3,0.3,0.6,0.3,0.9c0,0.2,0,0.4,0,0.7c0,0.1,0,0.1,0.1,0.1
		c0.2,0,0.5,0,0.7,0c0.1,0,0.1,0,0.1,0.1c0,0.2,0,0.4,0,0.6c0,0,0,0.1-0.1,0.1c0,0,0,0,0,0c-1,0-2,0-3,0c-0.1,0-0.1,0-0.1-0.1
		c0-0.2,0-0.5,0-0.7c0.1-0.1,0.1-0.2,0.2-0.2c0.1-0.2,0.2-0.3,0.3-0.4c0,0,0,0,0-0.1c0,0,0,0,0,0c0,0,0,0,0,0c0,0,0,0.1,0,0.1
		c0,0.2,0,0.3,0,0.5c0,0,0,0.1,0,0.1c0.1,0,0.1,0,0.2,0c0.3,0,0.5,0,0.8,0c0.1,0,0.1,0,0.1-0.1c0-0.2,0-0.4,0-0.6
		c0-0.1,0-0.2-0.1-0.4c-0.1-0.1-0.2-0.2-0.3-0.2c-0.1,0-0.1,0-0.2,0c0,0,0,0,0,0c0,0,0,0,0,0c0.1-0.1,0.2-0.2,0.2-0.3
		c0,0,0-0.1,0.1-0.1c0,0,0.1-0.1,0.1-0.1C1.5,21.8,1.6,21.8,1.7,21.7z"/>
	<path class="st3" d="M17.6,22.8c-0.1,0.1-0.1,0.1-0.2,0.1c-0.2,0.1-0.4,0.2-0.6,0.2c-0.3,0.1-0.5,0.2-0.8,0.3
		c-0.2,0.1-0.5,0.1-0.7,0.2c-0.2,0-0.4,0.1-0.7,0.1c0,0-0.1,0-0.1,0c0,0,0,0,0,0c-0.1,0.1-0.1,0.2-0.1,0.3c0,0,0,0,0,0
		c-0.1,0-0.1,0.1-0.1,0.2c0,0.1-0.1,0.1-0.1,0.2c0,0,0,0,0,0c0,0,0,0.1-0.1,0.1c0,0,0,0.1,0,0.1c0,0.1-0.1,0.1-0.1,0.2
		c0,0,0,0.1,0,0.1c0,0,0,0,0,0c-0.1,0-0.1,0.1-0.1,0.1c0,0,0,0.1,0,0.1c0,0,0,0,0,0.1c0,0,0,0.1-0.1,0.1c0,0,0,0,0,0
		c0,0,0,0.1,0,0.1c0,0,0,0-0.1,0.1c0,0.1-0.1,0.2-0.1,0.2c0,0.1-0.1,0.1-0.1,0.1c0-0.1,0-0.2,0-0.3c0,0,0,0,0,0.1c0,0.4,0,0.8,0,1.3
		c0,0,0,0,0,0.1c-0.1,0,0,0,0-0.1c0-0.3,0-0.6,0-0.9c0-0.7,0-1.5,0-2.2c0-0.1,0-0.1,0.1-0.1c0.3,0,0.6,0,0.9,0
		c0.2,0,0.5-0.1,0.7-0.1c0.3-0.1,0.6-0.1,0.9-0.2c0.2,0,0.3-0.1,0.5-0.1c0.2-0.1,0.5-0.2,0.7-0.3c0.2-0.1,0.3-0.1,0.4-0.2
		C17.5,22.8,17.6,22.8,17.6,22.8z"/>
	<path class="st3" d="M3.2,19.1c-0.2,0.2-0.5,0.3-0.7,0.5c0,0-0.1,0-0.1,0.1c0,0-0.1,0.1-0.1,0.1c0,0.2,0,0.3,0,0.5
		c0,0.1,0,0.1,0.1,0.1c0.2,0,0.5,0,0.7,0c0,0,0.1,0,0.1,0c0,0-0.1,0-0.1,0c-0.2,0-0.5,0-0.7,0c-0.1,0-0.1,0-0.2,0.1
		c-0.1,0.1-0.1,0.2-0.2,0.2C2,20.8,1.9,20.9,1.8,21c0,0-0.1,0.1,0,0.1c0,0,0,0,0,0c-0.3,0-0.6,0-0.9,0c-0.1,0-0.1,0,0-0.1
		C0.9,21,1,20.9,1,20.8c0.1-0.1,0.2-0.2,0.3-0.3c0.1-0.1,0.1-0.1,0.2-0.1c0,0,0.1,0,0.1,0c0.1,0,0.1,0,0.1-0.1c0-0.1,0-0.2,0-0.2
		c0,0,0-0.1,0-0.1c0,0,0,0,0,0c0,0,0.1,0,0.1,0c0.1-0.1,0.2-0.2,0.3-0.3c0,0,0.1-0.1,0.1-0.1c0,0,0,0,0,0c0.2-0.1,0.3-0.3,0.4-0.5
		c0.1-0.2,0.3-0.3,0.4-0.5c0,0,0,0,0.1,0c0,0,0,0,0,0C3.2,18.6,3.2,18.8,3.2,19.1C3.2,19.1,3.2,19.1,3.2,19.1z"/>
	<path class="st8" d="M1.7,21.7c-0.1,0.1-0.2,0.2-0.2,0.3c-0.1,0.1-0.2,0.2-0.2,0.3c0,0,0,0.1-0.1,0.1c0.1,0,0.1,0,0.2,0
		c0,0-0.1,0-0.1,0c-0.3,0-0.5,0.2-0.5,0.4c0,0.2,0,0.5,0,0.7c0,0,0,0.1,0,0.1c0,0,0,0,0-0.1c0-0.2,0-0.5,0-0.7
		c0,0.1-0.1,0.1-0.1,0.1c-0.1,0.1-0.2,0.2-0.2,0.2c0,0.1-0.1,0.1-0.2,0.2c0,0,0,0.1-0.1,0.1c0,0,0,0,0,0c0-0.3,0-0.5,0-0.8
		c0-0.3,0.1-0.6,0.3-0.9c0.2-0.3,0.6-0.4,0.9-0.4C1.4,21.7,1.5,21.7,1.7,21.7z"/>
	<path class="st8" d="M0.7,17.7c0.1-0.1,0.2-0.3,0.3-0.4c0.1-0.1,0.2-0.2,0.3-0.3c0,0,0.1,0,0.1-0.1c0.1-0.1,0.2-0.2,0.3-0.3
		c0,0,0,0,0,0c0.1-0.1,0.2-0.2,0.2-0.3c0,0,0.1-0.1,0.1-0.1c0.1-0.1,0.2-0.2,0.3-0.4c0.1-0.1,0.2-0.2,0.2-0.3c0,0,0,0,0,0
		c0.1,0.1,0.2,0.1,0.3,0.2c0,0,0,0.1,0,0.1c-0.1,0.1-0.2,0.2-0.3,0.3c-0.1,0.1-0.1,0.1-0.2,0.2c0,0,0,0,0,0c0,0-0.1,0-0.1,0.1
		c-0.1,0.1-0.3,0.2-0.4,0.2c-0.2,0.1-0.3,0.2-0.5,0.3c0,0,0,0,0,0c0,0,0,0,0,0c0.1,0,0.2,0,0.3,0c0.2,0,0.4,0,0.5,0
		c0.1,0,0.1,0.1,0,0.1c0,0.1-0.1,0.1-0.1,0.1c-0.1,0.1-0.2,0.3-0.4,0.4c0,0,0,0,0,0C1.4,17.8,1.1,17.8,0.7,17.7
		C0.7,17.8,0.7,17.8,0.7,17.7z"/>
	<path class="st9" d="M0,20.2c0-0.2,0-0.4,0-0.6c0-0.3,0.1-0.6,0.3-0.8c0.2-0.3,0.6-0.4,0.9-0.4c0.1,0,0.2,0,0.3,0.1l0,0
		c0,0.1,0,0.1-0.1,0.1c0,0-0.1,0.1-0.1,0.1C1.3,18.8,1.2,19,1,19.1c0,0.1-0.1,0-0.2,0.1c-0.1,0.1-0.1,0.1-0.2,0.2c0,0,0,0.1-0.1,0.1
		c0,0,0,0.1,0,0.1c-0.1,0-0.1,0.1-0.1,0.1c0,0,0,0.1-0.1,0.1c-0.1,0.1-0.1,0.1-0.2,0.2c0,0-0.1,0.1-0.1,0.1
		C0.2,20.1,0.1,20.1,0,20.2C0.1,20.2,0.1,20.2,0,20.2z"/>
	<path class="st10" d="M0,20.2C0.1,20.2,0.1,20.2,0,20.2c0.1-0.1,0.1-0.1,0.2-0.1c0.1-0.1,0.1-0.1,0.2-0.2c0.1-0.1,0.1-0.2,0.2-0.3
		c0,0,0,0,0.1,0c0,0,0,0,0,0.1c0,0.2,0,0.4,0,0.6c0,0.1,0,0.1,0.1,0.1c0.3,0,0.6,0,0.9,0c0.1,0,0.1,0,0.1-0.1c0-0.2,0-0.4,0-0.6
		c0-0.2-0.1-0.4-0.3-0.5c0,0-0.1,0-0.1-0.1c0,0,0-0.1,0.1,0c0.1,0,0.1,0.1,0.2,0.1c0.1,0.1,0.2,0.2,0.2,0.3c0,0,0,0,0,0.1
		c0,0.1,0,0.2,0,0.2c0,0.1,0,0.1,0,0.2c0,0.1,0,0.2,0,0.4c0,0.1,0,0.1-0.1,0.1c-0.1,0-0.1,0-0.2,0c-0.1,0-0.1,0.1-0.2,0.1
		c-0.1,0.1-0.2,0.2-0.3,0.3C1,20.9,0.9,21,0.8,21.1c0.3,0,0.7,0,1,0c0,0,0.1,0,0.1,0c-0.4,0-0.8,0-1.3,0c-0.2,0-0.4,0-0.6,0
		c0,0-0.1,0-0.1-0.1C0,20.8,0,20.5,0,20.2z"/>
	<path class="st0" d="M1.7,20c0-0.1,0-0.2,0-0.2c0,0,0-0.1,0-0.1c0-0.1,0-0.1,0-0.2c0-0.1-0.1-0.1-0.1-0.2c-0.1,0-0.1-0.1-0.2-0.1
		c0,0-0.1,0-0.1,0c0,0-0.1,0-0.1,0c-0.1,0-0.2,0-0.3,0c0,0,0,0-0.1,0c0-0.1,0.1,0,0.1-0.1c0,0-0.1,0,0,0c0,0,0,0,0.1-0.1
		c0.2-0.2,0.3-0.4,0.5-0.6c0,0,0,0,0,0C1.8,18.5,2,18.7,2.2,19c0,0.1,0,0,0.1,0c0.2-0.2,0.5-0.3,0.7-0.5c0.1,0,0.1-0.1,0.2-0.1
		c0,0,0,0,0.1,0c0,0,0,0,0,0c0,0.2,0,0.5,0,0.7c0,0,0,0,0,0c0-0.2,0-0.5,0-0.7c-0.1,0-0.1,0.1-0.1,0.1c-0.1,0.1-0.2,0.2-0.3,0.4
		c-0.1,0.1-0.3,0.3-0.4,0.4c0,0.1-0.1,0.1-0.1,0.1c-0.1,0.1-0.2,0.2-0.2,0.3c-0.1,0.1-0.1,0.1-0.2,0.2C1.9,19.9,1.8,20,1.7,20
		C1.8,20,1.8,20,1.7,20z"/>
	<path class="st11" d="M1.9,21.1C1.9,21.1,1.9,21.1,1.9,21.1c-0.2-0.1-0.2,0-0.1-0.1c0.1-0.2,0.2-0.3,0.4-0.4c0,0,0,0,0,0
		c0.1-0.2,0.2-0.2,0.3-0.2c0.2,0,0.5,0,0.7,0c0,0,0,0,0,0c0,0.2,0,0.3,0,0.5c0,0.1,0,0.2,0,0.3c0,0,0,0-0.1,0
		C2.7,21.1,2.3,21.1,1.9,21.1z"/>
	<path class="st10" d="M0.7,17.7c0.3,0,0.7,0,1,0c0,0,0.1,0,0.1,0c0.1,0,0.2,0,0.3,0c0.1,0,0.1,0,0.1-0.1c0,0,0,0,0,0
		c0.1-0.1,0.2-0.2,0.3-0.3c0.1-0.1,0.1-0.1,0.2-0.2c0,0,0,0,0.1,0c-0.1,0-0.3,0-0.4,0c0,0-0.1,0-0.1,0c-0.2,0-0.4,0-0.6,0
		c-0.1,0-0.2,0-0.3,0c0,0,0,0,0,0c0,0,0,0,0,0c0,0,0.1,0,0.1,0c0.6,0,1.1,0,1.7,0c0.1,0,0.1,0,0.1,0.1c0,0.2,0,0.4,0,0.5
		c0,0.1,0,0.1-0.1,0.1c0,0,0,0,0,0c-1,0-2,0-3.1,0c0,0-0.1,0-0.1,0C0.2,17.7,0.5,17.7,0.7,17.7z"/>
	<path class="st5" d="M26,17.5c0-0.1,0-0.2,0.1-0.2c0.1-0.2,0.1-0.5,0.2-0.7c0-0.2,0.1-0.3,0.1-0.5c0-0.2,0.1-0.4,0.1-0.6
		c0-0.2,0-0.4,0.1-0.6c0-0.1,0-0.2,0-0.2c0-0.3,0.1-0.7,0-1c0-0.3,0-0.6-0.1-0.9c0-0.3-0.1-0.6-0.1-0.8c0-0.1,0-0.3-0.1-0.4
		c0-0.2-0.1-0.4-0.1-0.6c0-0.2-0.1-0.4-0.2-0.6c-0.1-0.2-0.1-0.5-0.2-0.7c0-0.1,0-0.1-0.1-0.2c0,0,0-0.1,0-0.2
		c-0.1-0.2-0.1-0.3-0.2-0.5c0,0,0,0,0-0.1c0.1,0.1,0.1,0.3,0.2,0.4c0.2,0.4,0.3,0.8,0.4,1.3c0.1,0.3,0.2,0.7,0.2,1
		c0.1,0.4,0.1,0.7,0.2,1.1c0,0.2,0,0.5,0.1,0.7c0,0.4,0,0.8,0,1.2c0,0.2,0,0.4,0,0.6c0,0.1,0,0.3,0,0.4c0,0.3-0.1,0.7-0.1,1
		c-0.1,0.3-0.1,0.7-0.2,1C26.1,17.3,26.1,17.4,26,17.5z"/>
	<path class="st3" d="M17.9,1.4c-0.1,0-0.1,0-0.1,0c-0.2-0.1-0.3-0.1-0.5-0.2c-0.2,0-0.3-0.1-0.5-0.1c-0.1,0-0.2-0.1-0.3-0.1
		c-0.1,0-0.2-0.1-0.3-0.1c-0.2,0-0.5-0.1-0.7-0.1c-0.2,0-0.5-0.1-0.7-0.1c-0.1,0-0.2,0-0.4,0c-0.1,0-0.3,0-0.4,0c0,0-0.1,0,0,0
		c0.2,0,0.3,0,0.5,0c0.1,0,0.2,0,0.4,0c0.3,0,0.5,0.1,0.8,0.1c0.3,0,0.6,0.1,0.8,0.2C16.6,0.9,16.8,1,17,1.1c0.1,0,0.2,0.1,0.3,0.1
		c0.2,0,0.3,0.1,0.5,0.2C17.9,1.3,17.9,1.3,17.9,1.4z"/>
	<path class="st8" d="M2.4,16.4C2.4,16.4,2.4,16.3,2.4,16.4c0.1-0.1,0.1-0.2,0.2-0.2c0.1-0.1,0.1-0.2,0.2-0.3c0,0,0.1-0.1,0-0.1
		c0,0,0,0,0,0.1c0,0.1,0,0.2,0,0.2c0,0,0,0.1,0,0.1C2.7,16.2,2.6,16.3,2.4,16.4C2.4,16.4,2.4,16.4,2.4,16.4z"/>
	<path class="st5" d="M22.3,18C22.3,18,22.3,18,22.3,18c-0.1,0.3-0.3,0.6-0.4,0.8c0,0,0,0,0,0c0-0.1,0.1-0.2,0.2-0.3
		C22.1,18.4,22.2,18.2,22.3,18C22.3,18.1,22.3,18,22.3,18z"/>
	<path class="st0" d="M16.7,7.9c-0.1,0-0.1-0.1-0.2-0.1c-0.1-0.1-0.2-0.1-0.4-0.2c0,0,0,0,0,0C16.3,7.7,16.5,7.8,16.7,7.9z"/>
	<path class="st5" d="M20.7,20.5c0,0,0,0.1-0.1,0.2c-0.1,0-0.1,0-0.1,0.1C20.5,20.6,20.6,20.5,20.7,20.5z"/>
	<path class="st5" d="M25.1,7.7C25,7.6,25,7.6,25,7.5c0-0.1-0.1-0.1-0.1-0.2c0,0,0,0,0-0.1C24.9,7.4,25,7.6,25.1,7.7z"/>
	<path class="st3" d="M3.2,21.1c0-0.2,0-0.5,0-0.7c0,0,0,0,0,0C3.2,20.7,3.2,20.9,3.2,21.1C3.2,21.1,3.2,21.1,3.2,21.1z"/>
	<path class="st5" d="M19,25.7c0.1-0.1,0.1-0.1,0.2-0.1c0.1,0,0.1-0.1,0.2-0.1C19.2,25.6,19.1,25.7,19,25.7z"/>
	<path class="st0" d="M12.4,10.5c0.1,0,0.3-0.1,0.4-0.1C12.7,10.5,12.6,10.5,12.4,10.5z"/>
	<path class="st5" d="M21.2,19.8c0,0.1-0.1,0.2-0.2,0.2C21.1,19.9,21.2,19.9,21.2,19.8z"/>
	<path class="st5" d="M24.3,6.4c-0.1-0.1-0.1-0.1-0.2-0.2C24.2,6.3,24.3,6.3,24.3,6.4z"/>
	<path class="st5" d="M24.5,6.7c-0.1-0.1-0.1-0.1-0.2-0.2C24.4,6.5,24.4,6.6,24.5,6.7z"/>
	<path class="st0" d="M1.6,18.4c-0.1,0-0.2,0-0.3-0.1C1.4,18.4,1.5,18.4,1.6,18.4z"/>
	<path class="st5" d="M21.6,19.3c0,0.1-0.1,0.2-0.2,0.2C21.5,19.5,21.5,19.4,21.6,19.3z"/>
	<path class="st5" d="M25.4,8.5c0-0.1-0.1-0.1-0.1-0.2C25.4,8.4,25.4,8.4,25.4,8.5z"/>
	<path class="st5" d="M21.7,19.1c0,0.1-0.1,0.2-0.1,0.2C21.6,19.2,21.7,19.2,21.7,19.1z"/>
	<path class="st5" d="M21.1,20C21.1,20,21.1,20,21.1,20C21,20.1,21,20.1,21,20.1C21,20.1,21,20,21.1,20z"/>
	<path class="st5" d="M25.2,7.9c0-0.1-0.1-0.1-0.1-0.2C25.1,7.8,25.2,7.9,25.2,7.9z"/>
	<path class="st5" d="M18.8,25.8c0.1,0,0.1-0.1,0.2-0.1C18.9,25.8,18.8,25.8,18.8,25.8z"/>
	<path class="st5" d="M25.4,8.3c-0.1-0.1-0.1-0.1-0.1-0.2C25.3,8.2,25.3,8.2,25.4,8.3z"/>
	<path class="st5" d="M20.8,20.4c0,0.1-0.1,0.1-0.1,0.1C20.7,20.4,20.8,20.4,20.8,20.4z"/>
	<path class="st5" d="M24.8,7.2c0,0-0.1-0.1-0.1-0.2C24.7,7.1,24.8,7.1,24.8,7.2z"/>
	<path class="st3" d="M13.9,0.5c-0.1,0.1-0.1,0-0.2,0C13.8,0.5,13.8,0.5,13.9,0.5z"/>
	<path class="st5" d="M21.4,19.5c0,0.1-0.1,0.1-0.1,0.2C21.4,19.6,21.4,19.6,21.4,19.5z"/>
	<path class="st5" d="M22.4,17.8c0,0.1,0,0.1-0.1,0.2C22.4,17.9,22.4,17.9,22.4,17.8z"/>
	<path class="st5" d="M24.2,6.2c0,0-0.1,0-0.1-0.1C24.1,6.1,24.1,6.2,24.2,6.2z"/>
	<path class="st5" d="M21.3,19.7c0,0.1,0,0.1-0.1,0.1C21.3,19.8,21.3,19.7,21.3,19.7z"/>
	<path class="st8" d="M2.3,16.5C2.3,16.4,2.3,16.4,2.3,16.5C2.4,16.4,2.3,16.5,2.3,16.5z"/>
	<path class="st5" d="M25.2,8c0,0,0-0.1-0.1-0.1C25.2,8,25.2,8,25.2,8z"/>
	<path class="st5" d="M20.9,20.3c0,0.1,0,0.1-0.1,0.1C20.8,20.3,20.8,20.3,20.9,20.3z"/>
	<path class="st5" d="M21.8,19c0,0,0,0.1-0.1,0.1C21.7,19,21.8,19,21.8,19z"/>
	<path class="st5" d="M24.9,7.3C24.8,7.3,24.8,7.2,24.9,7.3C24.8,7.2,24.8,7.3,24.9,7.3z"/>
	<path class="st8" d="M2.6,15.6C2.5,15.6,2.5,15.6,2.6,15.6c-0.1,0-0.1,0-0.1-0.1C2.5,15.6,2.5,15.6,2.6,15.6z"/>
	<path class="st4" d="M13,10.4c-0.1,0-0.1,0-0.2,0c-0.1,0-0.1,0-0.2,0c-0.1,0-0.1,0-0.2,0c0,0,0,0-0.1,0c0,0,0,0-0.1,0
		c-0.2,0-0.3,0.1-0.5,0.1c-0.4,0.1-0.7,0.2-1,0.4c-0.4,0.2-0.7,0.5-0.9,0.9c-0.2,0.3-0.3,0.5-0.4,0.8c0,0.1-0.1,0.3-0.1,0.4
		c0,0.1,0,0.3-0.1,0.4c0,0.1,0,0.2,0,0.2c0,0.6,0,1.2,0,1.9c0,0.1,0,0.2,0,0.3c0,2.8,0,5.5,0,8.3c0,0.7,0,1.4,0,2
		c-0.1,0-0.1,0-0.2-0.1c0,0,0,0,0,0c0,0,0,0,0,0c0.1,0,0.1,0,0.1-0.1c0-0.4,0-0.9,0-1.3c0-0.8,0-1.7,0-2.5c0-1,0-2,0-3
		c0-1,0-1.9,0-2.9c0-0.8,0-1.7,0-2.5c0-0.2,0-0.5,0.1-0.7c0-0.2,0.1-0.3,0.1-0.5c0.1-0.2,0.1-0.4,0.2-0.6c0.1-0.2,0.2-0.4,0.3-0.5
		c0.1-0.2,0.3-0.3,0.4-0.5c0.2-0.1,0.3-0.3,0.5-0.4c0.2-0.1,0.4-0.2,0.7-0.3c0.3-0.1,0.6-0.2,0.9-0.2C12.7,10.3,12.9,10.4,13,10.4
		c0.1,0,0.1,0,0.1,0C13.1,10.4,13,10.4,13,10.4z"/>
	<path class="st3" d="M18.2,17.6C18.2,17.6,18.2,17.5,18.2,17.6C18.2,17.5,18.2,17.5,18.2,17.6C18.2,17.6,18.2,17.6,18.2,17.6z"/>
	<path class="st3" d="M18.8,16.6c0,0.1,0,0.1,0,0.1C18.7,16.6,18.7,16.6,18.8,16.6z"/>
	<path class="st3" d="M2.2,17.1c0.2,0,0.4,0,0.6,0c-0.1,0-0.1,0.1-0.2,0.1c0,0,0,0.1-0.1,0.1c-0.1,0.1-0.2,0.2-0.3,0.3
		c0,0-0.1,0.1,0,0.1c0,0-0.1,0-0.1,0c-0.1,0-0.3,0-0.4,0c0-0.1,0.1-0.1,0.1-0.2C2,17.4,2.1,17.3,2.2,17.1
		C2.3,17.1,2.2,17.1,2.2,17.1z"/>
</g>
<g>
	
		<linearGradient id="SVGID_2_" gradientUnits="userSpaceOnUse" x1="35.2668" y1="21.438" x2="35.2668" y2="11.0197" gradientTransform="matrix(1 0 0 -1 0 30)">
		<stop  offset="0" style="stop-color:#C49A46"/>
		<stop  offset="0.5052" style="stop-color:#F3E286"/>
		<stop  offset="1" style="stop-color:#C49A46"/>
	</linearGradient>
	<path class="st12" d="M40,12.4c0,2.4-1.8,3.8-4.6,3.8h-1.8V19h-2.9V8.6h4.8C38.2,8.6,40,10,40,12.4z M37,12.4c0-1-0.6-1.5-1.8-1.5
		h-1.6v3h1.6C36.4,13.9,37,13.4,37,12.4z"/>
	
		<linearGradient id="SVGID_3_" gradientUnits="userSpaceOnUse" x1="46.1903" y1="21.438" x2="46.1903" y2="11.0197" gradientTransform="matrix(1 0 0 -1 0 30)">
		<stop  offset="0" style="stop-color:#C49A46"/>
		<stop  offset="0.5052" style="stop-color:#F3E286"/>
		<stop  offset="1" style="stop-color:#C49A46"/>
	</linearGradient>
	<path class="st13" d="M46,16.2h-1.6V19h-2.9V8.6h4.8c2.8,0,4.6,1.5,4.6,3.9c0,1.5-0.8,2.7-2,3.3L51,19h-3.2L46,16.2z M46,10.9h-1.6
		v3H46c1.2,0,1.8-0.6,1.8-1.5C47.8,11.5,47.2,10.9,46,10.9z"/>
	
		<linearGradient id="SVGID_4_" gradientUnits="userSpaceOnUse" x1="58.4612" y1="21.438" x2="58.4612" y2="11.0197" gradientTransform="matrix(1 0 0 -1 0 30)">
		<stop  offset="0" style="stop-color:#C49A46"/>
		<stop  offset="0.5052" style="stop-color:#F3E286"/>
		<stop  offset="1" style="stop-color:#C49A46"/>
	</linearGradient>
	<path class="st14" d="M61.8,19l0-5.5L59.1,18h-1.3l-2.7-4.4V19h-2.7V8.6h2.4l3.7,6l3.6-6h2.4l0,10.4H61.8z"/>
	
		<linearGradient id="SVGID_5_" gradientUnits="userSpaceOnUse" x1="74.7223" y1="21.6327" x2="74.7223" y2="10.811" gradientTransform="matrix(1 0 0 -1 0 30)">
		<stop  offset="0" style="stop-color:#C49A46"/>
		<stop  offset="0.5052" style="stop-color:#F3E286"/>
		<stop  offset="1" style="stop-color:#C49A46"/>
	</linearGradient>
	<path class="st15" d="M70.2,18l1-2.2c0.9,0.6,2.2,1,3.4,1c1.2,0,1.7-0.3,1.7-0.8c0-1.7-5.9-0.4-5.9-4.3c0-1.9,1.5-3.4,4.6-3.4
		c1.3,0,2.8,0.3,3.8,0.9l-0.9,2.2c-1-0.5-2-0.8-2.9-0.8c-1.2,0-1.7,0.4-1.7,0.9c0,1.6,5.9,0.4,5.9,4.2c0,1.8-1.5,3.4-4.6,3.4
		C72.9,19.2,71.2,18.7,70.2,18z"/>
	
		<linearGradient id="SVGID_6_" gradientUnits="userSpaceOnUse" x1="85.1405" y1="21.6466" x2="85.1405" y2="10.8249" gradientTransform="matrix(1 0 0 -1 0 30)">
		<stop  offset="0" style="stop-color:#C49A46"/>
		<stop  offset="0.5052" style="stop-color:#F3E286"/>
		<stop  offset="1" style="stop-color:#C49A46"/>
	</linearGradient>
	<path class="st16" d="M80,13.8c0-3.2,2.4-5.4,5.7-5.4c1.9,0,3.5,0.7,4.5,2L88.4,12c-0.7-0.8-1.5-1.2-2.5-1.2c-1.7,0-2.9,1.2-2.9,3
		c0,1.8,1.2,3,2.9,3c1,0,1.8-0.4,2.5-1.2l1.9,1.7c-1,1.3-2.6,2-4.5,2C82.5,19.2,80,16.9,80,13.8z"/>
	
		<linearGradient id="SVGID_7_" gradientUnits="userSpaceOnUse" x1="96.1997" y1="21.4241" x2="96.1997" y2="11.0058" gradientTransform="matrix(1 0 0 -1 0 30)">
		<stop  offset="0" style="stop-color:#C49A46"/>
		<stop  offset="0.5052" style="stop-color:#F3E286"/>
		<stop  offset="1" style="stop-color:#C49A46"/>
	</linearGradient>
	<path class="st17" d="M98.4,17H94l-0.8,2h-3l4.6-10.4h2.9l4.6,10.4h-3.1L98.4,17z M97.5,14.8l-1.3-3.3l-1.3,3.3H97.5z"/>
	
		<linearGradient id="SVGID_8_" gradientUnits="userSpaceOnUse" x1="108.0412" y1="21.438" x2="108.0412" y2="11.0197" gradientTransform="matrix(1 0 0 -1 0 30)">
		<stop  offset="0" style="stop-color:#C49A46"/>
		<stop  offset="0.5052" style="stop-color:#F3E286"/>
		<stop  offset="1" style="stop-color:#C49A46"/>
	</linearGradient>
	<path class="st18" d="M113,8.6V19h-2.4l-4.6-5.5V19h-2.9V8.6h2.4l4.6,5.5V8.6H113z"/>
</g>
</svg>
